<svg width="144" height="45" viewBox="0 0 144 45" fill="none" xmlns="http://www.w3.org/2000/svg">
<path d="M24.3548 0H14.5997L0 35.6207H9.77148L24.3548 0Z" fill="#FFB71B"/>
<path d="M26.5893 1.13306L21.6953 13.1052L30.9248 35.6206H41.2711L26.5893 1.13306Z" fill="white"/>
<path d="M58.9265 10.2642C57.1692 10.2642 55.6091 10.6255 54.2131 11.3316C52.8172 12.0378 51.6841 13.056 50.8137 14.4027V10.8718H43.3906V35.6536H51.0107V21.7764C51.0107 20.1013 51.487 18.7547 52.4559 17.7365C53.4084 16.7347 54.6894 16.2256 56.266 16.2256C57.5798 16.2256 58.5487 16.6197 59.1728 17.3916C59.7969 18.1635 60.1089 19.3952 60.1089 21.0703V35.6536H67.729V20.7254C67.729 17.2274 67.0064 14.6162 65.5612 12.8754C64.0832 11.1346 61.8825 10.2642 58.9265 10.2642Z" fill="white"/>
<path d="M85.9529 21.0704L81.7651 20.1179C80.7633 19.8551 80.0407 19.5595 79.6466 19.2639C79.2525 18.9683 79.039 18.5413 79.039 17.9993C79.039 17.2603 79.3674 16.6855 80.0407 16.2914C80.7141 15.8808 81.6337 15.6837 82.8162 15.6837C85.3781 15.6837 87.9565 16.587 90.5841 18.4099L92.6041 13.3682C91.2574 12.3992 89.7465 11.6438 88.055 11.1018C86.3799 10.5599 84.6391 10.2971 82.8654 10.2971C80.7798 10.2971 78.924 10.6256 77.2817 11.2989C75.6559 11.9722 74.3913 12.8919 73.5045 14.0743C72.6177 15.2568 72.1743 16.6198 72.1743 18.1636C72.1743 20.1179 72.7327 21.6616 73.8658 22.7783C74.999 23.9115 76.7562 24.7326 79.1375 25.2746L83.1775 26.1778C84.4256 26.4406 85.2631 26.7526 85.723 27.0811C86.1828 27.4095 86.3963 27.8858 86.3963 28.4934C86.3963 29.1667 86.0678 29.6923 85.4109 30.0864C84.754 30.4806 83.8344 30.6612 82.6684 30.6612C81.0261 30.6612 79.3838 30.4149 77.7744 29.9058C76.165 29.3967 74.6869 28.6905 73.3403 27.7872L71.3203 33.0425C72.6998 34.0114 74.3421 34.7669 76.2471 35.2924C78.1521 35.8179 80.2378 36.0807 82.5206 36.0807C85.8544 36.0807 88.4656 35.4074 90.3706 34.0443C92.2756 32.6812 93.2281 30.809 93.2281 28.4113C93.2281 26.4242 92.6533 24.8476 91.4873 23.698C90.3049 22.4992 88.4656 21.6452 85.9529 21.0704Z" fill="white"/>
<path d="M142.228 23.6652C141.062 22.4992 139.223 21.6452 136.71 21.0704L132.522 20.1179C131.52 19.8551 130.814 19.5595 130.404 19.2639C129.993 18.9683 129.796 18.5413 129.796 17.9993C129.796 17.2603 130.124 16.6855 130.798 16.2914C131.471 15.8808 132.391 15.6837 133.573 15.6837C136.135 15.6837 138.713 16.587 141.341 18.4099L143.361 13.3682C142.014 12.3992 140.504 11.6438 138.812 11.1018C137.137 10.5599 135.396 10.2971 133.622 10.2971C131.537 10.2971 129.681 10.6256 128.055 11.2989C126.429 11.9722 125.165 12.8919 124.278 14.0743C123.391 15.2568 122.948 16.6198 122.948 18.1636C122.948 20.1179 123.506 21.6616 124.639 22.7783C125.772 23.9115 127.53 24.7326 129.911 25.2746L133.951 26.1778C135.199 26.4406 136.053 26.7526 136.496 27.0811C136.956 27.4095 137.17 27.8858 137.17 28.4934C137.17 29.1667 136.841 29.6923 136.184 30.0864C135.527 30.4806 134.608 30.6612 133.442 30.6612C131.8 30.6612 130.157 30.4149 128.548 29.9058C126.938 29.3967 125.444 28.6905 124.114 27.7872L122.094 33.0425C123.473 34.0114 125.116 34.7669 127.021 35.2924C128.926 35.8179 131.011 36.0807 133.294 36.0807C136.628 36.0807 139.239 35.4074 141.144 34.0443C143.049 32.6812 144.002 30.809 144.002 28.4113C143.969 26.3913 143.394 24.8312 142.228 23.6652Z" fill="white"/>
<path d="M114.233 10.9048L108.272 25.4388L102.31 10.9048H94.9531L104.593 34.422L100.373 44.7355H107.73L121.591 10.9048H114.233Z" fill="white"/>
</svg>
